<?xml version="1.0" encoding="UTF-8"?>
<svg width="110px" height="20px" viewBox="0 0 110 20" version="1.1" xmlns="http://www.w3.org/2000/svg" xmlns:xlink="http://www.w3.org/1999/xlink">
    <title>typo</title>
    <g id="Page-1" stroke="none" stroke-width="1" fill="none" fill-rule="evenodd">
        <g id="logo-composition" transform="translate(-37.000000, -3.000000)" fill="#4E25C3" fill-rule="nonzero">
            <g id="typo" transform="translate(37.000000, 3.000000)">
                <path d="M11.2262395,1.37754459 C11.6268277,1.37754459 11.9883341,1.40685592 12.3107587,1.45570814 C12.6331834,1.5143308 12.8969853,1.62180568 13.1217055,1.78790321 C13.3464257,1.95400075 13.5027528,2.17872095 13.6199981,2.46206381 C13.727473,2.74540667 13.7860957,3.11668352 13.7860957,3.57589436 L13.7860957,16.6096561 C13.7860957,17.4694552 13.3855075,18.1631566 12.5745607,18.6712197 C12.0469568,19.0229557 11.3532553,19.3258394 10.5129971,19.5896414 C9.672739,19.8534433 8.69569465,19.9902296 7.60140499,19.9902296 C6.40941089,19.9902296 5.34443256,19.824132 4.39669954,19.4919369 C3.44896653,19.1597419 2.65756061,18.6809901 2.0029409,18.0654522 C1.34832119,17.4401438 0.859799022,16.6975901 0.517833502,15.8280207 C0.166097538,14.9584512 -8.61533067e-14,13.9716364 -8.61533067e-14,12.8675763 C-8.61533067e-14,11.6560413 0.185638425,10.6106039 0.547144832,9.72149351 C0.918421683,8.83238316 1.42648474,8.0995999 2.07133401,7.50360285 C2.71618327,6.9076058 3.47827786,6.47771606 4.35761777,6.1943732 C5.22718724,5.91103034 6.16514981,5.76447369 7.18127592,5.76447369 C7.55255277,5.76447369 7.90428874,5.79378502 8.2560247,5.86217812 C8.59799022,5.94034167 8.88133308,6.01850522 9.10605328,6.10643921 L9.10605328,1.65111701 C9.2916917,1.59249435 9.58480501,1.53387168 9.98539319,1.47524902 C10.3859814,1.41662636 10.79634,1.37754459 11.2262395,1.37754459 Z M22.1984475,5.77424413 C23.1852623,5.77424413 24.0939135,5.87194857 24.9048603,6.07712788 C25.7255776,6.28230719 26.419279,6.58519094 26.9957352,6.99553979 C27.5721914,7.40589842 28.0216318,7.93350236 28.3245155,8.55881074 C28.6273993,9.18411912 28.7934968,9.93644327 28.7934968,10.7962423 L28.7934968,16.9613921 C28.7934968,17.4401438 28.6567106,17.8309616 28.3929086,18.1338453 C28.1291066,18.4367291 27.806682,18.700531 27.4451756,18.9154808 C26.2531815,19.6287231 24.5726652,19.9902296 22.4133972,19.9902296 C21.4363529,19.9902296 20.5667834,19.9022956 19.7851479,19.7166571 C19.0035125,19.5310187 18.3391223,19.2574463 17.782207,18.8861694 C17.2252918,18.524663 16.7953923,18.0556818 16.4925085,17.4792256 C16.1896248,16.9125399 16.0430681,16.2481497 16.0430681,15.4958256 C16.0430681,14.2354384 16.414345,13.258394 17.1666691,12.5842334 C17.9189933,11.9100728 19.081676,11.4801733 20.6644879,11.3140758 L24.2697815,10.9330285 L24.2697815,10.7376196 C24.2697815,10.2100157 24.0352908,9.82896839 23.5663096,9.59447775 C23.0973283,9.36975755 22.4231677,9.25251223 21.5438278,9.25251223 C20.8501263,9.25251223 20.1661952,9.33067577 19.5115755,9.47723242 C18.8471854,9.62378908 18.2511883,9.8094275 17.7235844,10.0243773 C17.4890937,9.85827972 17.2839144,9.60424819 17.1178169,9.27205311 C16.9517194,8.93008759 16.8735558,8.57835163 16.8735558,8.21684522 C16.8735558,7.73809349 16.9908011,7.3570462 17.2155213,7.07370334 C17.4402415,6.79037025 17.8017479,6.54610917 18.2707292,6.34092985 C18.7983332,6.13575054 19.433412,5.98919389 20.1564248,5.9012599 C20.8696672,5.82309635 21.5535982,5.77424413 22.1984475,5.77424413 Z M24.2893224,14.0204886 L22.3059224,14.1865862 C21.7880889,14.2256679 21.3679598,14.3331428 21.0455352,14.5187812 C20.7133401,14.7044197 20.5472425,14.9779921 20.5472425,15.3492689 C20.5472425,15.7205458 20.6937992,16.0136591 20.977142,16.2383793 C21.2604849,16.4728699 21.7392366,16.5803448 22.4133972,16.5803448 C22.7260514,16.5803448 23.0680169,16.5510335 23.4490642,16.4826404 C23.8203411,16.4240177 24.1036839,16.3360837 24.2893224,16.2188384 L24.2893224,14.0204886 Z M7.8065843,9.42838021 C6.81976952,9.42838021 6.05767493,9.71172307 5.52030054,10.2784088 C4.99269659,10.8450945 4.71912418,11.7048935 4.71912418,12.8675763 C4.71912418,14.0009477 4.96338526,14.8607468 5.46167788,15.4372029 C5.95997049,16.0136591 6.67321286,16.3067724 7.61117543,16.3067724 C7.94337051,16.3067724 8.23648381,16.2579202 8.50028579,16.1602157 C8.76408776,16.0625113 8.96926707,15.945266 9.11582372,15.8182502 L9.11582372,9.76057528 C8.76408776,9.54562553 8.3244178,9.42838021 7.8065843,9.42838021 Z" id="da"></path>
                <path d="M48.1585157,5.77424413 C49.1453305,5.77424413 50.0539817,5.87194857 50.8649285,6.07712788 C51.6856458,6.28230719 52.3793472,6.58519094 52.9558034,6.99553979 C53.5322596,7.40589842 53.9817,7.93350236 54.2845837,8.55881074 C54.5874675,9.18411912 54.753565,9.93644327 54.753565,10.7962423 L54.753565,16.9613921 C54.753565,17.4401438 54.6167788,17.8309616 54.3529768,18.1338453 C54.0891748,18.4367291 53.7667502,18.700531 53.4052438,18.9154808 C52.2132497,19.6287231 50.5327334,19.9902296 48.3734654,19.9902296 C47.3964211,19.9902296 46.5268516,19.9022956 45.7452161,19.7166571 C44.9635807,19.5310187 44.2991905,19.2574463 43.7422752,18.8861694 C43.18536,18.524663 42.7554605,18.0556818 42.4525767,17.4792256 C42.149693,16.9125399 42.0031363,16.2481497 42.0031363,15.4958256 C42.0031363,14.2354384 42.3744132,13.258394 43.1267373,12.5842334 C43.8790615,11.9100728 45.0417442,11.4801733 46.6245561,11.3140758 L50.2298497,10.9330285 L50.2298497,10.7376196 C50.2298497,10.2100157 49.995359,9.82896839 49.5263778,9.59447775 C49.0573965,9.36975755 48.3832359,9.25251223 47.503896,9.25251223 C46.8101945,9.25251223 46.1262634,9.33067577 45.4716437,9.47723242 C44.8072536,9.62378908 44.2112565,9.8094275 43.6836526,10.0243773 C43.4491619,9.85827972 43.2439826,9.60424819 43.0778851,9.27205311 C42.9117876,8.93008759 42.833624,8.57835163 42.833624,8.21684522 C42.833624,7.73809349 42.9508693,7.3570462 43.1755895,7.07370334 C43.4003097,6.79037025 43.7618161,6.54610917 44.2307974,6.34092985 C44.7584014,6.13575054 45.3934802,5.98919389 46.116493,5.9012599 C46.8395058,5.82309635 47.5234369,5.77424413 48.1585157,5.77424413 Z M68.2660883,1.37754459 C68.6666764,1.37754459 69.0281828,1.40685592 69.3506075,1.45570814 C69.6730321,1.5143308 69.9368341,1.62180568 70.1615543,1.78790321 C70.3862745,1.95400075 70.5426016,2.17872095 70.6598469,2.46206381 C70.7673218,2.74540667 70.8259444,3.11668352 70.8259444,3.57589436 L70.8259444,16.6096561 C70.8259444,17.4694552 70.4253563,18.1631566 69.6144094,18.6712197 C69.0868055,19.0229557 68.393104,19.3258394 67.5528459,19.5896414 C66.7125878,19.8534433 65.7355434,19.9902296 64.6412537,19.9902296 C63.4492596,19.9902296 62.3842813,19.824132 61.4365483,19.4919369 C60.4888153,19.1597419 59.6974094,18.6809901 59.0427897,18.0654522 C58.3881699,17.4401438 57.8996478,16.6975901 57.5576823,15.8280207 C57.2157167,14.9584512 57.0398488,13.9716364 57.0398488,12.8675763 C57.0398488,11.6560413 57.2254872,10.6106039 57.5869936,9.72149351 C57.9582704,8.83238316 58.4663335,8.0995999 59.1111828,7.50360285 C59.756032,6.9076058 60.5181266,6.47771606 61.3974665,6.1943732 C62.267036,5.91103034 63.2049986,5.76447369 64.2211247,5.76447369 C64.5924015,5.76447369 64.9441375,5.79378502 65.2958735,5.86217812 C65.6476094,5.93057123 65.9309523,6.00873478 66.145902,6.09666877 L66.145902,1.65111701 C66.3315405,1.59249435 66.6246538,1.53387168 67.0252419,1.47524902 C67.4258301,1.41662636 67.8361887,1.37754459 68.2660883,1.37754459 Z M33.7764229,3.24385561 C34.5873697,3.24385561 35.2126781,3.39041226 35.6621185,3.67375512 C36.1115589,3.95709798 36.3362791,4.56286548 36.3362791,5.47151671 L36.3362791,7.23022584 L39.9415727,7.23022584 C40.0490476,7.43540516 40.1565225,7.67966624 40.2542269,7.98254999 C40.3519314,8.28543373 40.410554,8.61762881 40.410554,8.98890566 C40.410554,9.63375493 40.2639974,10.0929658 39.9806545,10.3763086 C39.6973117,10.6596515 39.3162644,10.8062081 38.8375126,10.8062081 L36.3362791,10.8062081 L36.3362791,14.9586466 C36.3362791,15.4373983 36.4828358,15.7793638 36.7857195,15.9747727 C37.0886033,16.179952 37.5185028,16.2776565 38.0656476,16.2776565 C38.33922,16.2776565 38.6225629,16.2581156 38.9156762,16.2092634 C39.2087895,16.1604111 39.462821,16.1017885 39.6875412,16.0333954 C39.8536388,16.2385747 39.990425,16.4632949 40.1174407,16.707556 C40.2346861,16.9518171 40.2933087,17.2547008 40.2933087,17.6064368 C40.2933087,18.3001383 40.0295067,18.866824 39.5116732,19.3162644 C38.9938397,19.7559343 38.0656476,19.9708841 36.7466377,19.9708841 C35.1345146,19.9708841 33.8936683,19.5996072 33.0240988,18.866824 C32.1545293,18.1340407 31.7148594,16.9420466 31.7148594,15.2908417 L31.7148594,3.51742803 C31.9200387,3.45880537 32.2033816,3.40018271 32.5844288,3.34156005 C32.9557057,3.27316694 33.3562939,3.24385561 33.7764229,3.24385561 Z M75.9456568,6.12606803 C76.346245,6.12606803 76.7077514,6.15537936 77.030176,6.20423158 C77.3526006,6.2530838 77.6261731,6.37032912 77.8411228,6.53642666 C78.065843,6.70252419 78.2319406,6.92724439 78.3491859,7.21058725 C78.4664312,7.49393011 78.5250539,7.86520696 78.5250539,8.3244178 L78.5250539,19.5311164 C78.3198745,19.5701982 78.0267612,19.6190504 77.6359435,19.6776731 C77.2451258,19.7460662 76.8445376,19.7753775 76.4439494,19.7753775 C76.0433612,19.7753775 75.6818548,19.7460662 75.3594302,19.6874435 C75.0370056,19.6288209 74.7732036,19.521346 74.5484834,19.3552484 C74.3237632,19.1891509 74.1576656,18.9644307 74.0404203,18.6810878 C73.923175,18.397745 73.8645523,18.0264681 73.8645523,17.5672573 L73.8645523,6.38009956 C74.0697317,6.34101779 74.362845,6.29216557 74.7536627,6.22377247 C75.1444804,6.16514981 75.5450686,6.12606803 75.9456568,6.12606803 Z M50.259161,14.0204886 L48.275761,14.1865862 C47.7579275,14.2256679 47.3377984,14.3331428 47.0153738,14.5187812 C46.6831787,14.7044197 46.5170812,14.9779921 46.5170812,15.3492689 C46.5170812,15.7205458 46.6636378,16.0136591 46.9469807,16.2383793 C47.2205531,16.4728699 47.6993048,16.5803448 48.3832359,16.5803448 C48.6958901,16.5803448 49.0378556,16.5510335 49.4189029,16.4826404 C49.7901797,16.4240177 50.0735226,16.3360837 50.259161,16.2188384 L50.259161,14.0204886 Z M64.8562035,9.42838021 C63.8693887,9.42838021 63.1072941,9.71172307 62.5699197,10.2784088 C62.0423158,10.8450945 61.7687434,11.7048935 61.7687434,12.8675763 C61.7687434,14.0009477 62.0130045,14.8607468 62.5112971,15.4372029 C63.0095897,16.0136591 63.7228321,16.3067724 64.6607946,16.3067724 C64.9929897,16.3067724 65.286103,16.2579202 65.549905,16.1602157 C65.813707,16.0625113 66.0188863,15.945266 66.1654429,15.8182502 L66.1654429,9.76057528 C65.813707,9.54562553 65.3642666,9.42838021 64.8562035,9.42838021 Z M76.1899179,-5.15143483e-14 C76.9617829,-5.15143483e-14 77.5773208,0.234490642 78.0463021,0.713242371 C78.5152834,1.1919941 78.7497741,1.7782207 78.7497741,2.47192219 C78.7497741,3.16562367 78.5152834,3.75185028 78.0463021,4.23060201 C77.5773208,4.70935373 76.9617829,4.94384438 76.1899179,4.94384438 C75.4180528,4.94384438 74.8025149,4.70935373 74.3335336,4.23060201 C73.8645523,3.76162072 73.6300617,3.17539412 73.6300617,2.47192219 C73.6300617,1.7782207 73.8645523,1.1919941 74.3335336,0.713242371 C74.8025149,0.234490642 75.4180528,-5.15143483e-14 76.1899179,-5.15143483e-14 Z" id="tadi"></path>
                <path d="M102.648279,5.78402435 C103.615553,5.78402435 104.504663,5.930581 105.305839,6.2236943 C106.107016,6.51680761 106.790947,6.91737625 107.367403,7.43520975 C107.943859,7.95304325 108.393299,8.55881074 108.715724,9.28182356 C109.038149,9.99506593 109.194476,10.7767014 109.194476,11.6169595 C109.194476,12.2422679 109.018608,12.7210196 108.676642,13.0434443 C108.324906,13.3756394 107.846155,13.5808187 107.220846,13.6785231 L100.430388,14.6946492 C100.635567,15.3004167 101.045926,15.7498571 101.671234,16.0527409 C102.296543,16.3556246 103.009785,16.5021813 103.820732,16.5021813 C104.573056,16.5021813 105.286298,16.4044768 105.950689,16.2090679 C106.615079,16.0136591 107.162224,15.7889389 107.592123,15.5349074 C107.885236,15.7205458 108.129497,15.9745773 108.334677,16.3067724 C108.539856,16.6389675 108.637561,16.9907034 108.637561,17.3522098 C108.637561,18.1729271 108.256513,18.788465 107.484648,19.1988236 C106.898422,19.5114778 106.234031,19.7166571 105.501248,19.8339025 C104.768465,19.9511478 104.055223,20 103.420144,20 C102.335625,20 101.339039,19.8436729 100.410847,19.5505596 C99.482655,19.2476759 98.6814787,18.7982355 97.9877772,18.192468 C97.3038461,17.5867005 96.7567013,16.8246059 96.3658836,15.9061842 C95.9750658,14.9877625 95.779657,13.9130137 95.779657,12.6917083 C95.779657,11.4801733 95.9750658,10.4445063 96.3658836,9.57493686 C96.7567013,8.70536739 97.2745348,7.99212502 97.9193841,7.4254393 C98.5642333,6.86852403 99.2970166,6.45818494 100.117734,6.18461253 C100.938451,5.92081056 101.78848,5.78402435 102.648279,5.78402435 Z M93.4836028,0.429840888 C94.128452,0.429840888 94.6658264,0.566627096 95.1054964,0.840199512 C95.5451663,1.11377193 95.7601161,1.59252366 95.7601161,2.26668425 C95.7601161,2.55979756 94.3140904,8.49041764 94.1773042,9.04733291 C94.040518,9.60424819 93.86465,10.239327 93.6594707,10.9427989 C93.444521,11.6462709 93.2002599,12.398595 92.916917,13.1802305 C92.6335742,13.9716364 92.3404609,14.733731 92.0473476,15.4860551 C91.7542343,16.2383793 91.461121,16.9418512 91.1777781,17.5867005 C90.9042057,18.2413202 90.6599446,18.7786946 90.4352244,19.1988236 C90.1811929,19.404003 89.8001456,19.5701005 89.3116234,19.6971163 C88.8133308,19.824132 88.2564155,19.8925251 87.6311071,19.8925251 C86.9178648,19.8925251 86.3023268,19.8045911 85.7747229,19.6189527 C85.2471189,19.4333143 84.8856125,19.140201 84.6902037,18.7396128 C84.5241061,18.4269586 84.3286973,17.9872887 84.0942066,17.4303734 C83.859716,16.8734581 83.6252253,16.2481497 83.3614234,15.5642187 C83.1073918,14.8802876 82.8338194,14.1377339 82.560247,13.346328 C82.2866746,12.5549221 82.0228726,11.7732866 81.7786115,11.011192 C81.5343504,10.239327 81.3096302,9.49677331 81.1044509,8.78353094 C80.8992716,8.07028857 80.7331741,7.43520975 80.6061583,6.88806491 C80.8601898,6.63407247 81.2021554,6.40935227 81.6418253,6.2139434 C82.0717248,6.01853453 82.5407061,5.9208301 83.0585396,5.9208301 C83.7033889,5.9208301 84.2309928,6.0576163 84.6413514,6.32141828 C85.0517101,6.58522025 85.3643643,7.08347378 85.5597731,7.81625704 L86.6345219,12.0273182 C86.8397012,12.8578059 87.0253396,13.6003596 87.2109781,14.2745201 C87.3966165,14.9389103 87.5334027,15.4665142 87.6213367,15.8280207 L87.7581229,15.8280207 C88.1098589,14.469929 88.4713653,12.9652807 88.862183,11.3140758 C89.2432303,9.66287085 90.9725988,2.54025667 91.285253,0.94767439 C91.5979072,0.781576852 91.9496431,0.654561087 92.3404609,0.566627096 C92.7312786,0.478693105 93.1123259,0.429840888 93.4836028,0.429840888 Z M102.648279,9.18411912 C102.208609,9.18411912 101.827561,9.26228267 101.505137,9.40883932 C101.182712,9.55539597 100.91891,9.7410344 100.723501,9.97552504 C100.518322,10.2100157 100.371765,10.4640472 100.274061,10.7473901 C100.176357,11.0307329 100.117734,11.3238462 100.098193,11.6169595 L104.797776,10.8450945 C104.739154,10.4738177 104.543745,10.1123112 104.192009,9.7410344 C103.840273,9.36975755 103.322439,9.18411912 102.648279,9.18411912 Z" id="ve"></path>
            </g>
        </g>
    </g>
</svg>
